<svg width="300" height="300" viewBox="0 0 300 300" fill="none" xmlns="http://www.w3.org/2000/svg">
<rect width="300" height="300" rx="5" fill="#FFF500"/>
<path d="M167.909 175.909H179.182V242.455C179.182 248.394 178.091 253.439 175.909 257.591C173.727 261.742 170.652 264.894 166.682 267.045C162.712 269.197 158.03 270.273 152.636 270.273C147.545 270.273 143.015 269.348 139.045 267.5C135.076 265.621 131.955 262.955 129.682 259.5C127.409 256.045 126.273 251.939 126.273 247.182H137.364C137.364 249.818 138.015 252.121 139.318 254.091C140.652 256.03 142.47 257.545 144.773 258.636C147.076 259.727 149.697 260.273 152.636 260.273C155.879 260.273 158.636 259.591 160.909 258.227C163.182 256.864 164.909 254.864 166.091 252.227C167.303 249.561 167.909 246.303 167.909 242.455V175.909ZM252.682 199.182C252.136 194.576 249.924 191 246.045 188.455C242.167 185.909 237.409 184.636 231.773 184.636C227.652 184.636 224.045 185.303 220.955 186.636C217.894 187.97 215.5 189.803 213.773 192.136C212.076 194.47 211.227 197.121 211.227 200.091C211.227 202.576 211.818 204.712 213 206.5C214.212 208.258 215.758 209.727 217.636 210.909C219.515 212.061 221.485 213.015 223.545 213.773C225.606 214.5 227.5 215.091 229.227 215.545L238.682 218.091C241.106 218.727 243.803 219.606 246.773 220.727C249.773 221.848 252.636 223.379 255.364 225.318C258.121 227.227 260.394 229.682 262.182 232.682C263.97 235.682 264.864 239.364 264.864 243.727C264.864 248.758 263.545 253.303 260.909 257.364C258.303 261.424 254.485 264.652 249.455 267.045C244.455 269.439 238.379 270.636 231.227 270.636C224.561 270.636 218.788 269.561 213.909 267.409C209.061 265.258 205.242 262.258 202.455 258.409C199.697 254.561 198.136 250.091 197.773 245H209.409C209.712 248.515 210.894 251.424 212.955 253.727C215.045 256 217.682 257.697 220.864 258.818C224.076 259.909 227.53 260.455 231.227 260.455C235.53 260.455 239.394 259.758 242.818 258.364C246.242 256.939 248.955 254.97 250.955 252.455C252.955 249.909 253.955 246.939 253.955 243.545C253.955 240.455 253.091 237.939 251.364 236C249.636 234.061 247.364 232.485 244.545 231.273C241.727 230.061 238.682 229 235.409 228.091L223.955 224.818C216.682 222.727 210.924 219.742 206.682 215.864C202.439 211.985 200.318 206.909 200.318 200.636C200.318 195.424 201.727 190.879 204.545 187C207.394 183.091 211.212 180.061 216 177.909C220.818 175.727 226.197 174.636 232.136 174.636C238.136 174.636 243.47 175.712 248.136 177.864C252.803 179.985 256.5 182.894 259.227 186.591C261.985 190.288 263.439 194.485 263.591 199.182H252.682Z" fill="black"/>
</svg>
