<?xml version="1.0" encoding="utf-8"?>
<svg xmlns="http://www.w3.org/2000/svg" xmlns:xlink="http://www.w3.org/1999/xlink" version= "1.1" width="1605px" height="1147px" viewBox="-263 490 1605 1147">
<g id="layer1">
<g style="fill:rgb(159,194,170); fill-opacity:1.0; stroke-linejoin: miter">
<path d="M-263.001,489.25595C-263.1981,489.25595,-263.3871,489.33423,-263.52643,489.47357C-263.66577,489.6129,-263.74405,489.8019,-263.74405,489.999L-263.74304,1637.0C-263.74304,1637.4104,-263.41037,1637.743,-263.0,1637.743L1342.001,1637.744C1342.198,1637.744,1342.387,1637.6658,1342.5264,1637.5264C1342.6658,1637.387,1342.744,1637.198,1342.744,1637.001L1342.743,490.0C1342.743,489.58963,1342.4104,489.25696,1342.0,489.25696L-263.001,489.25595 Z"/>
</g>
<g style="fill:rgb(227,237,242); fill-opacity:0.99607843; stroke-linejoin: miter">
<path d="M309.3117,875.4283L309.3117,875.4295L309.3117,875.4284L309.3117,875.4283L309.3117,875.4295L309.3117,875.4283L309.3117,875.4284Q309.3117,875.4283,309.3117,875.4283 Z"/>
</g>
<g style="fill:rgb(0,0,0); fill-opacity:0.09411765; stroke-linejoin: miter">
<path d="M277.55643,1360.2994C274.5646,1361.2587,271.80298,1362.7319,269.37506,1364.6152Q273.47083,1365.3938,277.5615,1366.1725L277.5615,1360.2994 Z"/>
</g>
<g style="fill:rgb(0,0,0); fill-opacity:0.23529412; stroke-linejoin: miter">
<path d="M1120.6985,1483.4476L1115.6768,1486.2611Q1079.9764,1494.7627,906.7577,1499.8596Q732.3399,1504.9528,495.9806,1503.9906Q270.40613,1502.645,135.16183,1496.1163Q91.82805,1494.0062,63.77426,1491.518L40.19574,1488.9596Q20.764938,1486.319,20.546555,1483.4484Q26.445091,1474.6385,181.66022,1468.7888Q336.87506,1462.9387,570.6227,1462.7164Q804.3699,1462.9387,959.58496,1468.7883Q1114.7998,1474.6381,1120.6985,1483.4476"/>
</g>
<g style="fill:rgb(0,0,0); fill-opacity:0.99607843; stroke-linejoin: miter">
<path d="M343.86252,1418.901L369.2598,1443.7023L394.65717,1468.5033L343.86252,1418.901"/>
</g>
<g style="fill:rgb(34,43,50); fill-opacity:1.0; stroke-linejoin: miter">
<path d="M874.00195,1201.6584L843.1199,1180.2849L814.8041,1056.8375C808.01,1027.2167,781.64954,1006.21893,751.2597,1006.21893L432.92755,1006.2203C402.53763,1006.2187,376.17892,1027.2163,369.38315,1056.8369L341.06744,1180.2845L310.1852,1201.6581C289.75357,1215.798,277.56143,1239.0646,277.56143,1263.9103L277.56155,1408.724L906.62555,1408.7255L906.6257,1263.9111C906.6257,1239.0632,894.43176,1215.7983,874.00195,1201.6584 Z"/>
</g>
<g style="fill:rgb(118,205,206); fill-opacity:1.0; stroke-linejoin: miter">
<path d="M807.02966,1180.2853L377.16556,1180.2864L403.67624,1064.7122C406.8261,1050.9932,418.85034,1041.3989,432.937,1041.3988L751.2581,1041.4008C765.3448,1041.3993,777.36914,1050.9933,780.5189,1064.7123L807.02966,1180.2853 Z"/>
</g>
<g style="fill:rgb(0,0,0); fill-opacity:1.0; stroke-linejoin: miter">
<path d="M312.71625,1412.3727L312.71625,1477.4764C312.71625,1486.0367,319.65588,1492.9767,328.2165,1492.9767L387.61328,1492.9777C396.17413,1492.9767,403.11353,1486.0367,403.11353,1477.4764L403.11353,1412.3729"/>
</g>
<g style="fill:rgb(0,0,0); fill-opacity:1.0; stroke-linejoin: miter">
<path d="M781.072,1412.3727L781.072,1477.4764C781.072,1486.037,788.0115,1492.9767,796.57263,1492.9767L855.96924,1492.9779C864.5299,1492.9767,871.4697,1486.037,871.4697,1477.4764L871.4697,1412.3729"/>
</g>
<g style="fill:rgb(77,77,77); fill-opacity:1.0; stroke-linejoin: miter">
<path d="M683.2288,1412.3726L683.2288,1420.2632C683.2288,1439.4282,667.6933,1454.9644,648.52814,1454.9644L535.6577,1454.9658C516.4927,1454.9646,500.95697,1439.4285,500.95697,1420.2634L500.95697,1412.3728"/>
</g>
<g style="fill:rgb(165,179,188); fill-opacity:1.0; stroke-linejoin: miter">
<path d="M397.6114,1286.8159C397.6114,1307.127,381.1462,1323.592,360.83536,1323.592C340.5244,1323.5925,324.0594,1307.1272,324.0594,1286.8162C324.05927,1266.5045,340.5244,1250.0397,360.83536,1250.0391C381.1462,1250.0393,397.61127,1266.5051,397.6114,1286.8159 Z"/>
</g>
<g style="fill:rgb(165,179,188); fill-opacity:1.0; stroke-linejoin: miter">
<path d="M860.1212,1286.8158C860.1212,1307.1273,843.65625,1323.5922,823.3451,1323.5922C803.03467,1323.5923,786.56946,1307.127,786.56946,1286.8162C786.56946,1266.5056,803.03467,1250.0398,823.3451,1250.0396C843.65625,1250.0398,860.1216,1266.5054,860.1212,1286.8158 Z"/>
</g>
<g style="fill:rgb(165,179,188); fill-opacity:1.0; stroke-linejoin: miter">
<path d="M424.20685,1333.4655C423.42352,1333.4655,422.62396,1333.3854,421.8565,1333.2418C421.08893,1333.0817,420.33752,1332.8583,419.61786,1332.5546C418.88226,1332.2504,418.19495,1331.8827,417.53912,1331.451C416.8836,1331.0032,416.276,1330.5073,415.71478,1329.9639C415.1712,1329.404,414.66113,1328.7966,414.22778,1328.1409C413.7962,1327.4851,413.42834,1326.7815,413.12463,1326.0625C412.82227,1325.343,412.59833,1324.5913,412.43683,1323.8237C412.27722,1323.0403,412.19873,1322.2568,412.19873,1321.4731C412.19873,1318.3232,413.49384,1315.2373,415.71478,1312.9988C416.276,1312.4395,416.8822,1311.9434,417.53912,1311.512C418.1964,1311.0801,418.88226,1310.6963,419.61786,1310.4087C420.33752,1310.1045,421.08893,1309.8809,421.8565,1309.7207C423.4074,1309.4175,424.9903,1309.4175,426.54138,1309.7207C427.3072,1309.8809,428.06024,1310.1045,428.77832,1310.4087C429.51385,1310.6963,430.20294,1311.0801,430.85864,1311.512C431.51245,1311.9434,432.12164,1312.4395,432.68134,1312.9988C434.91992,1315.2373,436.1992,1318.3232,436.1992,1321.4731C436.1992,1322.2568,436.11923,1323.0403,435.95932,1323.8237C435.7993,1324.5913,435.5754,1325.343,435.2717,1326.0625C434.96777,1326.7815,434.6001,1327.4851,434.16846,1328.1409C433.73663,1328.7966,433.2249,1329.404,432.68134,1329.9639C432.12164,1330.5073,431.5141,1331.0032,430.85864,1331.451C430.20294,1331.8827,429.51385,1332.2504,428.77832,1332.5546C428.06024,1332.8583,427.30743,1333.0817,426.54138,1333.2418C425.77393,1333.3854,424.97437,1333.4655,424.20685,1333.4655 Z"/>
</g>
<g style="fill:rgb(165,179,188); fill-opacity:1.0; stroke-linejoin: miter">
<path d="M759.98834,1333.4656C759.2048,1333.4656,758.4052,1333.386,757.63776,1333.2422C756.8703,1333.082,756.1187,1332.8584,755.39923,1332.5544C754.66364,1332.2505,753.97626,1331.8826,753.32086,1331.4512C752.6651,1331.0195,752.05743,1330.508,751.4964,1329.9641C749.2736,1327.7256,747.9799,1324.6394,747.9799,1321.4734C747.9799,1318.3237,749.27545,1315.2375,751.4964,1312.999C752.05743,1312.4397,752.6634,1311.9438,753.32086,1311.5122C753.97784,1311.0806,754.66364,1310.6963,755.39923,1310.4087C756.1187,1310.1047,756.8703,1309.8809,757.63776,1309.7212C759.18866,1309.4014,760.7719,1309.4014,762.3227,1309.7212C763.0888,1309.8809,763.84174,1310.1047,764.55963,1310.4087C765.2951,1310.6963,765.9843,1311.0801,766.63983,1311.512C767.29376,1311.9434,767.9029,1312.4397,768.46313,1312.999C769.02246,1313.5588,769.51807,1314.166,769.94995,1314.8215C770.3834,1315.4773,770.74927,1316.1646,771.0532,1316.8845C771.35535,1317.6199,771.5808,1318.3716,771.7406,1319.1392C771.902,1319.9067,771.9802,1320.69,771.9802,1321.4734C771.9802,1322.2571,771.9005,1323.0564,771.7406,1323.824C771.5808,1324.5916,771.35693,1325.343,771.0532,1326.0625C770.74927,1326.782,770.3816,1327.4856,769.94995,1328.1414C769.51807,1328.7969,769.02246,1329.4048,768.46313,1329.9641C767.9029,1330.508,767.29535,1331.0195,766.63983,1331.4512C765.9843,1331.8826,765.2951,1332.2505,764.55963,1332.5544C763.84174,1332.8584,763.0888,1333.082,762.3227,1333.2422C761.55524,1333.386,760.7558,1333.4656,759.98834,1333.4656 Z"/>
</g>
<g style="fill:rgb(125,139,150); fill-opacity:1.0; stroke-linejoin: miter">
<path d="M898.4792,1412.3727L285.70667,1412.3746C270.9771,1412.373,259.03595,1400.4321,259.03595,1385.7021L259.03595,1385.7041C259.03595,1370.9727,270.97693,1359.0315,285.70667,1359.0314L898.4792,1359.0331C913.20856,1359.0314,925.1495,1370.9723,925.1495,1385.7018L925.1495,1385.7037C925.1495,1400.4318,913.2088,1412.3727,898.4792,1412.3727 Z"/>
</g>
<g style="fill:rgb(150,224,222); fill-opacity:1.0; stroke-linejoin: miter">
<path d="M807.02966,1180.2853L675.0196,1180.2865L536.134,1041.3993L751.2581,1041.4008C765.3448,1041.3993,777.36914,1050.9933,780.5189,1064.7123L807.02966,1180.2853 Z"/>
</g>
<g style="fill:rgb(255,255,255); fill-opacity:1.0; stroke-linejoin: miter">
<path d="M462.68576,1518.4021L462.68576,1518.4031L462.68576,1518.4036L450.3281,1518.4033L450.3281,1518.4021 Z"/>
</g>
<g style="fill:rgb(60,70,79); fill-opacity:1.0; stroke-linejoin: miter">
<path d="M368.7797,1173.44L365.46896,1180.3911Q348.91852,1215.4291,374.34,1227.2527Q386.7265,1234.4299,406.92883,1239.0295L425.98834,1242.717L448.79355,1245.8032L474.9421,1248.3088Q502.66846,1250.2556,530.3501,1251.3217L558.02014,1252.1683Q585.6793,1252.7948,613.29346,1252.5414Q665.53033,1252.2842,729.5528,1247.5049Q777.4663,1243.6812,806.3528,1234.4768Q828.1708,1226.6499,832.39514,1216.5737Q836.84424,1199.2275,817.74695,1176.2166L368.7797,1173.44"/>
</g>
<g style="fill:rgb(118,205,206); fill-opacity:0.99607843; stroke-linejoin: miter">
<path d="M314.40424,1515.2181L314.40436,1515.2191L314.40436,1515.2203L314.40424,1515.2181"/>
</g>
<g>
<g style="fill:rgb(83,82,81); fill-opacity:1.0; stroke-linejoin: miter">
<path d="M479.12863,874.76166L479.12863,838.8266C479.12863,831.1209,485.39767,824.85187,493.1034,824.85175L525.0457,824.85223C532.7514,824.85175,539.02057,831.1209,539.0206,838.8265L539.0206,874.7616L527.04224,874.76196L527.042,838.8265C527.0421,837.72565,526.1465,836.83,525.04565,836.83L493.10352,836.8306C492.0027,836.83014,491.10706,837.7259,491.10706,838.8266L491.10718,874.7618L479.12863,874.762 Z M489.1108,994.5457C489.1108,987.93,483.74802,982.5672,477.13242,982.5672C470.5167,982.5672,465.15402,987.93,465.15402,994.5457C465.15396,1001.1611,470.51663,1006.52386,477.13235,1006.52386C483.74796,1006.52386,489.1107,1001.1611,489.1108,994.5457 Z M552.99567,994.5456C552.99567,987.9299,547.6329,982.5671,541.01715,982.5672C534.40137,982.56696,529.0387,987.92975,529.0387,994.5455C529.0387,1001.1611,534.40155,1006.52386,541.0173,1006.52386C547.6329,1006.52386,552.99554,1001.1611,552.99567,994.5456 Z"/>
</g>
<g style="fill:rgb(188,60,40); fill-opacity:1.0; stroke-linejoin: miter">
<path d="M523.04926,838.8265L495.09985,838.82697C493.99744,838.8266,493.10352,837.9327,493.10352,836.83014L493.1034,824.85175C493.1034,823.74945,493.99744,822.8554,495.09985,822.8554L523.0493,822.8559C524.15173,822.8554,525.0457,823.7493,525.0457,824.85175L525.04565,836.83C525.04565,837.93243,524.1517,838.8265,523.04926,838.8265 Z"/>
</g>
<g style="fill:rgb(188,60,40); fill-opacity:1.0; stroke-linejoin: miter">
<path d="M572.9594,874.7615L572.95953,978.57416C572.9598,987.39484,565.80914,994.5456,556.98846,994.5456L461.1613,994.5461C452.34073,994.5457,445.18994,987.3947,445.18994,978.57434L445.18994,874.7618C445.18994,865.9412,452.3406,858.7906,461.16104,858.79047L556.9881,858.7907C565.80865,858.79034,572.9594,865.941,572.9594,874.7615 Z"/>
</g>
<g style="fill:rgb(212,99,46); fill-opacity:1.0; stroke-linejoin: miter">
<path d="M525.0459,970.5886L493.10364,970.58923C479.8726,970.5886,469.14682,959.8628,469.14676,946.63196L469.14664,866.77606C469.14676,862.36566,472.72177,858.79047,477.13223,858.79047L541.01697,858.79083C545.42737,858.79047,549.0026,862.36566,549.00256,866.77606L549.0026,946.6317C549.0026,959.8628,538.2768,970.5886,525.0459,970.5886 Z"/>
</g>
</g>
<g style="fill:rgb(173,158,127); fill-opacity:1.0; stroke-linejoin: miter">
<path d="M582.55316,865.8818L661.53625,865.8821L740.5192,865.8823Q740.5192,936.0919,740.5191,1006.30133Q661.53625,1006.3017,582.55316,1006.3018Q582.55316,936.0918,582.55316,865.8818"/>
</g>
<g style="fill:rgb(112,97,78); fill-opacity:1.0; stroke-linejoin: miter">
<path d="M576.1674,851.1071L660.5812,851.1074L744.99506,851.10767Q744.99506,868.4778,744.99506,885.8479Q660.5812,885.848,576.1674,885.84827Q576.1674,868.4777,576.1674,851.1071"/>
</g>
<g>
<g style="fill:rgb(175,99,40); fill-opacity:1.0; stroke-linejoin: miter">
<path d="M574.4366,865.43024C578.88385,865.43024,582.52277,861.7913,582.52277,857.3438L582.52234,727.9617C582.5228,723.5141,578.88403,719.8753,574.4365,719.8752L566.35034,719.8752C561.90283,719.8752,558.26404,723.5141,558.26404,727.9617L558.2632,857.3438C558.26373,861.7912,561.9025,865.4301,566.3503,865.43024L574.4366,865.43024 Z"/>
</g>
<g style="fill:rgb(162,84,37); fill-opacity:1.0; stroke-linejoin: miter">
<path d="M469.31436,841.17096C467.0906,841.1711,465.2712,842.9904,465.2712,845.2142L465.27078,853.3005C465.2712,855.52435,467.0906,857.3438,469.31436,857.3437L558.26373,857.3438L558.2633,841.1711L469.31436,841.17096 Z"/>
</g>
<g style="fill:rgb(162,84,37); fill-opacity:1.0; stroke-linejoin: miter">
<path d="M469.31448,727.9617C467.0908,727.9617,465.27133,729.7811,465.27133,732.0049L465.27084,740.0912C465.27127,742.31494,467.09067,744.1344,469.31442,744.1344L558.2639,744.1344L558.2635,727.9617L469.31448,727.9617 Z"/>
</g>
<g style="fill:rgb(162,84,37); fill-opacity:1.0; stroke-linejoin: miter">
<path d="M558.26373,841.1711L558.26373,857.3438L550.1774,857.3438L550.1773,841.17084L558.26373,841.1711 Z M558.26373,841.1711L558.26373,857.3438L550.1774,857.3438L550.1773,841.17084L558.26373,841.1711 Z M558.26373,841.1711L558.26373,857.3438L550.1774,857.3438L550.1773,841.17084L558.26373,841.1711 Z M558.26373,841.1711L558.26373,857.3438L550.1774,857.3438L550.1773,841.17084L558.26373,841.1711 Z"/>
</g>
<g style="fill:rgb(127,65,34); fill-opacity:1.0; stroke-linejoin: miter">
<path d="M558.26404,727.9617L558.2639,744.1344L550.1774,744.1344L550.1774,727.96155L558.26404,727.9617 Z M558.26404,727.9617L558.2639,744.1344L550.1774,744.1344L550.1774,727.96155L558.26404,727.9617 Z M558.26404,727.9617L558.2639,744.1344L550.1774,744.1344L550.1774,727.96155L558.26404,727.9617 Z M558.26404,727.9617L558.2639,744.1344L550.1774,744.1344L550.1774,727.96155L558.26404,727.9617 Z"/>
</g>
<g style="fill:rgb(127,65,34); fill-opacity:1.0; stroke-linejoin: miter">
<path d="M546.1344,744.1345L546.1343,841.17084L538.048,841.17096L538.0481,744.1345L546.1344,744.1345 Z M546.1344,744.1345L546.1343,841.17084L538.048,841.17096L538.0481,744.1345L546.1344,744.1345 Z M546.1344,744.1345L546.1343,841.17084L538.048,841.17096L538.0481,744.1345L546.1344,744.1345 Z M546.1344,744.1345L546.1343,841.17084L538.048,841.17096L538.0481,744.1345L546.1344,744.1345 Z"/>
</g>
<g style="fill:rgb(127,65,34); fill-opacity:1.0; stroke-linejoin: miter">
<path d="M724.0334,845.2145L724.03284,740.0913C724.03345,735.6256,720.4133,732.005,715.94714,732.005L703.8176,732.0049C699.3519,732.0049,695.7313,735.6256,695.7313,740.0912L695.7307,742.1129C695.7313,745.46216,693.01636,748.1776,689.6665,748.1776L586.566,748.17737L582.5228,748.1775L582.52234,756.2639L582.5228,764.35034L582.52234,772.43677L582.5228,780.5232L582.52234,788.6095L582.5228,796.6959L582.52234,804.78235L582.5228,812.86884L582.52234,820.95514L582.5228,829.04156L582.5223,833.0848L582.52277,837.12787L689.6665,837.12805C693.01624,837.12805,695.7312,839.8435,695.7312,843.1929L695.7306,845.2145C695.7312,849.6802,699.3518,853.3008,703.8176,853.301L715.9471,853.3009C720.41327,853.3009,724.0334,849.6802,724.0334,845.2145 Z M590.6091,824.9982C590.60895,822.7652,592.4194,820.95514,594.6523,820.955L683.6018,820.95526C685.8346,820.95526,687.645,822.76556,687.64514,824.9987C687.64514,827.2314,685.8346,829.04156,683.6018,829.04156L594.6523,829.04144C592.4194,829.04144,590.6091,827.23114,590.6091,824.9982 Z M590.60895,808.8254C590.60895,806.5926,592.4195,804.7824,594.6523,804.7824L683.6018,804.78265C685.8347,804.78265,687.645,806.59283,687.645,808.82574C687.645,811.05865,685.8347,812.86896,683.6018,812.86896L594.6523,812.8687C592.4195,812.8687,590.60895,811.0583,590.60895,808.8254 Z M590.6091,792.65265C590.6091,790.41974,592.4194,788.60944,594.65216,788.60944L683.6017,788.6097C685.8345,788.6097,687.645,790.4201,687.645,792.6529C687.645,794.8858,685.8347,796.6961,683.6018,796.6961L594.6523,796.696C592.4195,796.696,590.6091,794.88544,590.6091,792.65265 Z M590.6091,776.4799C590.6091,774.247,592.4194,772.4367,594.6523,772.4367L683.6017,772.4368C685.8346,772.4368,687.64514,774.2474,687.64514,776.48016C687.64514,778.7131,685.8345,780.52325,683.6017,780.52325L594.6523,780.523C592.4194,780.523,590.6091,778.7127,590.6091,776.4799 Z M590.6091,760.307C590.6091,758.0741,592.4194,756.2639,594.6523,756.2639L683.6017,756.26404C685.8346,756.26404,687.6449,758.07434,687.6449,760.30725C687.6449,762.54004,685.8346,764.35034,683.6017,764.35034L594.6523,764.3502C592.4194,764.3502,590.6091,762.5399,590.6091,760.307 Z"/>
</g>
</g>
<g style="fill:rgb(73,78,81); fill-opacity:1.0; stroke-linejoin: miter">
<path d="M588.9395,882.93616L588.9395,882.93713C586.769,884.4558,583.7768,883.9291,582.25714,881.7577L560.24097,850.31464C558.7213,848.1441,559.24805,845.1519,561.4194,843.63214L561.4194,843.633C563.59,842.1125,566.5822,842.63947,568.10187,844.81085L590.1181,876.2538C591.63776,878.4243,591.1108,881.4158,588.9395,882.93616 Z"/>
</g>
<g style="fill:rgb(73,78,81); fill-opacity:1.0; stroke-linejoin: miter">
<path d="M593.5927,882.93616L593.5927,882.93713C595.7631,884.4558,598.75543,883.9291,600.2751,881.7577L622.2911,850.31476C623.8107,848.14435,623.28375,845.15204,621.1126,843.63226L621.1126,843.63324C618.9422,842.1126,615.9499,842.6396,614.43024,844.811L592.41425,876.2538C590.8952,878.4243,591.4222,881.4158,593.5927,882.93616 Z"/>
</g>
<g style="fill:rgb(50,55,59); fill-opacity:1.0; stroke-linejoin: miter">
<path d="M522.5153,1003.57794L666.22815,1003.5788C674.7224,1003.57794,681.609,996.69135,681.609,988.1971L681.609,890.006C681.609,881.5117,674.7224,874.62524,666.22815,874.62524L522.5153,874.6262C514.0208,874.62537,507.13446,881.51184,507.13446,890.0062L507.13446,988.1972C507.13446,996.69147,514.02106,1003.57794,522.5153,1003.57794 Z"/>
</g>
<g style="fill:rgb(35,40,43); fill-opacity:1.0; stroke-linejoin: miter">
<path d="M666.22815,874.62524L591.46405,874.626L591.464,1003.5777L666.22815,1003.5788C674.7224,1003.57794,681.609,996.69135,681.609,988.1971L681.609,890.006C681.609,881.5117,674.7224,874.62524,666.22815,874.62524 Z"/>
</g>
<g style="fill:rgb(35,40,43); fill-opacity:1.0; stroke-linejoin: miter">
<path d="M670.7042,906.90295C670.7042,913.4072,665.4315,918.68005,658.9274,918.6802C652.42303,918.6802,647.1503,913.40735,647.1503,906.90295C647.1503,900.3988,652.42303,895.1261,658.9274,895.1261C665.4315,895.126,670.7042,900.3987,670.7042,906.90295 Z"/>
</g>
<g style="fill:rgb(89,81,85); fill-opacity:1.0; stroke-linejoin: miter">
<path d="M670.7042,943.97876C670.7042,950.48315,665.4315,955.75586,658.9274,955.756C652.42303,955.756,647.1503,950.4833,647.1503,943.9789C647.1503,937.4746,652.42303,932.2019,658.9274,932.2019C665.4315,932.2018,670.7042,937.4746,670.7042,943.97876 Z"/>
</g>
<g style="fill:rgb(189,195,199); fill-opacity:1.0; stroke-linejoin: miter">
<path d="M535.8502,989.7785L624.1049,989.7796C631.53217,989.77875,637.55426,983.7576,637.55426,976.3293L637.55426,901.8738C637.55426,894.44653,631.533,888.42444,624.1049,888.42444L535.8502,888.4252C528.4227,888.4243,522.4009,894.4457,522.4009,901.8739L522.4009,976.3293C522.4009,983.75775,528.4221,989.7785,535.8502,989.7785 Z"/>
</g>
<g style="fill:rgb(157,164,168); fill-opacity:1.0; stroke-linejoin: miter">
<path d="M624.1049,888.42444L591.46405,888.4252L591.46405,989.7786L624.1049,989.7796C631.53217,989.77875,637.55426,983.7576,637.55426,976.3293L637.55426,901.8738C637.55426,894.4457,631.533,888.42444,624.1049,888.42444 Z"/>
</g>
<g style="fill:rgb(99,112,121); fill-opacity:1.0; stroke-linejoin: miter">
<path d="M393.02298,948.62354L393.02298,948.62354C410.03406,957.7434,429.2741,967.8191,433.3424,978.8627L433.3424,978.8627C437.76373,990.8649,424.7652,1002.4205,415.04987,1011.5214C414.1048,1012.40656,412.6975,1012.58307,411.5631,1011.9587C410.42877,1011.3343,409.82507,1010.05084,410.06757,1008.7789L410.06757,1008.7789L463.74893,727.1416C464.00577,725.7942,465.14627,724.79425,466.51572,724.71576L466.51572,724.71576L579.40857,718.2496C579.54736,718.24164,579.6865,718.24335,579.8251,718.2547L579.8251,718.2547L722.70557,730.02124C724.01953,730.1295,725.10767,731.0856,725.38416,732.37476L725.38416,732.37476L785.10803,1010.8912C785.42224,1012.3564,784.6035,1013.82794,783.1929,1014.33356C781.7822,1014.8392,780.2152,1014.2226,779.5272,1012.8914L779.5272,1012.8914C772.7072,999.6966,763.76886,983.1954,766.71844,976.8621L766.7183,976.86237C766.9201,976.4289,767.1799,976.0074,767.50726,975.618L767.5075,975.61786C768.045,974.9788,768.6961,974.5068,769.39667,974.17804L769.39667,974.17804C770.6485,973.59076,772.0196,973.4754,773.26263,973.53986L773.26263,973.53986C779.88654,973.884,791.9438,980.30927,802.7996,986.01373C804.26166,986.7819,804.82416,988.59015,804.05585,990.0522C803.28754,991.51434,801.47943,992.0767,800.0173,991.3084L800.0173,991.3084C788.35175,985.1785,777.88824,979.7696,772.95233,979.5131L772.95233,979.5131C772.2353,979.4759,771.9616,979.5816,771.9372,979.5931L771.9371,979.5931C771.9462,979.5887,772.0141,979.5522,772.0849,979.46783L772.08514,979.4676C772.12445,979.42084,772.13983,979.38873,772.14056,979.38715L772.14056,979.38727C770.8189,982.22504,776.77057,994.5318,784.8407,1010.1451L779.25977,1012.1453L719.5359,733.6288L722.2146,735.9824L579.3341,724.2159L579.7506,724.221L466.8577,730.68726L469.62436,728.2616L415.943,1009.89874L410.96075,1007.1562C422.34216,996.4947,430.44025,988.2878,427.72986,980.9302L427.72986,980.9302C424.66632,972.614,408.54614,963.7324,390.19687,953.8949C388.74118,953.1146,388.19376,951.3019,388.97415,949.8462C389.7546,948.3906,391.5673,947.84314,393.02298,948.62354 Z"/>
</g>
<g style="fill:rgb(180,143,28); fill-opacity:1.0; stroke-linejoin: miter">
<path d="M768.4599,978.35785L772.1103,978.358L775.7608,978.3581Q775.7608,995.1374,775.76074,1011.9163Q772.1102,1011.9163,768.45984,1011.91644Q768.4599,995.13727,768.4599,978.35785"/>
</g>
<g style="fill:rgb(180,143,28); fill-opacity:1.0; stroke-linejoin: miter">
<path d="M416.91168,969.2367L421.97913,969.23584L427.04663,969.23486Q427.05054,989.6098,427.0545,1009.98456Q421.98706,1009.98566,416.91956,1009.98663Q416.91565,989.61176,416.91168,969.2367"/>
</g>
<g style="fill:rgb(180,143,28); fill-opacity:1.0; stroke-linejoin: miter">
<path d="M406.10284,1006.09076L593.505,1006.75653L780.9027,1007.4228Q780.9241,1001.40546,780.9455,995.38824Q593.5478,994.72235,406.14563,994.0566Q406.12433,1000.0738,406.10284,1006.09076"/>
</g>
<g style="fill:rgb(99,112,121); fill-opacity:1.0; stroke-linejoin: miter">
<path d="M586.55804,719.2162L586.55804,719.2162C587.23016,732.2489,587.9012,745.272,588.5184,785.41376L588.518,785.3901L588.51825,785.404L588.51874,785.42755C589.1352,825.5257,589.6993,892.7865,590.2625,959.96826L590.2625,959.9752L590.50543,999.9338C590.51215,1001.04205,589.9053,1002.06305,588.9287,1002.5871C587.95215,1003.11115,586.76575,1003.05194,585.84607,1002.43353L585.84607,1002.43353C581.19855,999.30853,574.2629,994.9173,573.2054,990.6115L573.2055,990.61163C572.8647,989.2248,573.03375,987.7298,573.9312,986.39545L573.93134,986.3952C574.05304,986.2144,574.1812,986.0461,574.3211,985.88153L574.32086,985.8818L574.32635,985.8753L574.3322,985.86847C577.91425,981.6796,591.7519,980.1125,602.686,978.68463C604.32367,978.47076,605.82477,979.6252,606.03864,981.2629C606.2525,982.9007,605.0982,984.40155,603.4605,984.6154L603.4605,984.6154C590.53094,986.3039,580.5053,987.85284,578.878,989.7558L578.88385,989.74896L578.87836,989.75543L578.8781,989.7557C578.87897,989.7547,578.88544,989.74677,578.8942,989.7337L578.8945,989.73346C579.02997,989.5319,579.034,989.2664,579.014,989.18463L579.014,989.18475C579.3598,990.59235,583.1276,993.398,589.18365,997.47015L584.52435,999.97003L584.28143,960.0115L584.28143,960.01855C583.7182,892.8368,583.1543,825.5805,582.5383,785.51953L582.5388,785.5432L582.53845,785.5293L582.53796,785.50574C581.9219,745.43774,581.2528,732.4796,580.5847,719.52435C580.49976,717.87494,581.76794,716.46857,583.4173,716.38354C585.0667,716.29846,586.47296,717.56665,586.55804,719.2162 Z"/>
</g>
<g style="fill:rgb(99,112,121); fill-opacity:1.0; stroke-linejoin: miter">
<path d="M589.1634,723.01733L589.1634,723.01733L589.1634,723.01746C589.1634,724.2223,588.4405,725.3096,587.3293,725.7754C586.2181,726.24133,584.93585,725.995,584.0765,725.15027L584.0765,725.15027C576.1864,717.39557,566.43335,708.0567,565.59375,703.13055L565.59375,703.13055C565.5575,702.91864,565.5314,702.6961,565.52026,702.4654L565.52026,702.4654C565.40186,700.0184,566.9723,698.44135,568.7291,697.8143L568.7291,697.8143C569.44165,697.56,570.1786,697.4494,570.8673,697.4161L570.8673,697.4161C571.02856,697.40826,571.18994,697.4046,571.3512,697.4046L571.3512,697.4046C574.96655,697.4046,579.9602,699.2935,583.2602,702.287L583.2602,702.287C588.79254,707.3052,589.3621,715.23254,589.92914,721.46423C590.0788,723.10925,588.86664,724.56384,587.22186,724.7135C585.57697,724.86316,584.12225,723.6511,583.9726,722.0062L583.9726,722.0062C583.3433,715.08997,582.71704,709.86957,579.2417,706.71735L579.2417,706.71735C576.96106,704.6485,573.37524,703.3858,571.3512,703.3858L571.3512,703.3858C571.28076,703.3858,571.21643,703.3874,571.15625,703.3903L571.1564,703.3903C570.87976,703.40375,570.7539,703.44244,570.7396,703.4476L570.7396,703.4476C570.8988,703.3907,571.5303,702.9152,571.4945,702.17645L571.4945,702.17645C571.4929,702.1425,571.48975,702.12494,571.48987,702.1257L571.48987,702.1257C571.9037,704.55316,579.1549,711.9267,588.2692,720.8845L583.1824,723.0175L583.1824,723.0174C583.1824,721.3658,584.5212,720.02673,586.1729,720.02673C587.8245,720.02673,589.1634,721.3657,589.1634,723.01733 Z"/>
</g>
<g style="fill:rgb(99,112,121); fill-opacity:1.0; stroke-linejoin: miter">
<path d="M583.37994,723.20044L583.37994,723.20044L583.37994,723.20056C583.37994,724.4054,584.10297,725.4927,585.2142,725.9586C586.32526,726.42456,587.6075,726.1781,588.46686,725.3335L588.46686,725.3335C596.357,717.57874,606.11017,708.23987,606.94977,703.31384L606.94977,703.31384C606.9859,703.1018,607.012,702.8794,607.02313,702.6487L607.02313,702.6487C607.14154,700.20154,605.5711,698.62463,603.8143,697.99744L603.8143,697.99744C603.10175,697.74316,602.3648,697.63245,601.6762,697.5991L601.6761,697.5991C601.51483,697.5913,601.3536,697.58765,601.1922,697.58765L601.1922,697.58765C597.57684,697.58765,592.5832,699.4767,589.28314,702.4702L589.28314,702.4702C583.7509,707.4883,583.1813,715.41583,582.61426,721.6475C582.4646,723.2924,583.6767,724.7471,585.3215,724.8967C586.9665,725.0464,588.4211,723.8342,588.57074,722.18945L588.57074,722.18945C589.2,715.2732,589.8265,710.0526,593.3017,706.9004L593.3017,706.9004C595.58234,704.83154,599.1683,703.56885,601.1922,703.56885L601.1922,703.56885C601.26263,703.56885,601.32697,703.57043,601.38715,703.57336L601.387,703.57336C601.66376,703.5868,601.7896,703.6256,601.8039,703.63074L601.8039,703.63074C601.6446,703.57385,601.01324,703.09827,601.049,702.3595L601.049,702.3595C601.0506,702.32556,601.05365,702.3081,601.0535,702.3087L601.0535,702.3087C600.63983,704.7362,593.3885,712.10974,584.2741,721.0676L589.36115,723.20056L589.36115,723.20044C589.36115,721.5488,588.02216,720.20996,586.3704,720.20996C584.7188,720.20996,583.37994,721.5488,583.37994,723.20044 Z"/>
</g>
</g>
</svg>